# xmcd
# 
# Track frame offsets:
#     150
#     15950
#     39410
#     60630
#     78422
#     100030
#     111962
#     130255
# 
# Disc length: 2066
# 
# Revision: 10
# Processed by: cddbd v1.5.2PL0 Copyright (c) Steve Scherf et al.
# Submitted via: fre:ac v1.0.17
# 
DISCID=58081008
DTITLE=The Beach Boys - Carl and The Passions - "So Tough"
DYEAR=1972
DGENRE=Rock
TTITLE0=You Need A Mess Of Help To Stand Alone
TTITLE1=Here She Comes
TTITLE2=He Come Down
TTITLE3=Marcella
TTITLE4=Hold On Dear Brother
TTITLE5=Make It Good
TTITLE6=All This Is That
TTITLE7=Cuddle Up
EXTD=YEAR: 1972
EXTT0=
EXTT1=
EXTT2=
EXTT3=
EXTT4=
EXTT5=
EXTT6=
EXTT7=
PLAYORDER=
